#N canvas 326 129 792 575 10;
#N canvas 0 0 450 300 (subpatch) 0;
#X array \$0-filter-real 32 float 5;
#A 0 32.0053 28.9317 23.2689 18.4838 15.0339 12.5741 10.777 9.42475
8.37909 7.55142 6.88324 6.33482 5.87851 5.49458 5.16849 4.88937 4.64887
4.44069 4.25982 4.10239 3.96515 3.84553 3.74147 3.65133 3.5737 3.50752
3.45175 3.40567 3.36873 3.34047 3.32055 3.3087;
#X coords 0 34 31 0 256 200 1 0 0;
#X restore 379 101 graph;
#X floatatom 165 102 5 0 0 0 - - -;
#X obj 219 353 metro 250;
#X obj 219 330 loadbang;
#X obj 228 375 s \$0-snap;
#X text 226 305 SR/64).;
#X msg 145 367 \; pd dsp 1;
#X obj 76 534 tabwrite~ \$0-filter-real;
#X obj 220 232 bng 15 250 50 0 empty empty empty 17 7 0 10 -262144
-1 -1;
#X obj 62 273 *~;
#X obj 107 273 *~;
#X obj 59 366 sqrt~;
#X obj 62 322 +~;
#X obj 135 484 tabwrite~ \$0-filter-imaginary;
#X obj 106 208 rfft~;
#N canvas 800 0 792 810 generator 0;
#X obj 440 274 osc~;
#X obj 482 274 osc~;
#X obj 522 274 osc~;
#X obj 564 274 osc~;
#X obj 605 274 osc~;
#X obj 647 274 osc~;
#X obj 687 274 osc~;
#X obj 729 274 osc~;
#X obj 439 221 * 1;
#X obj 482 221 * 2;
#X obj 526 221 * 3;
#X obj 568 221 * 4;
#X obj 610 221 * 5;
#X obj 649 221 * 6;
#X obj 694 221 * 7;
#X obj 736 221 * 8;
#X obj 373 41 samplerate~;
#X obj 45 60 tgl 15 0 empty empty empty 17 7 0 10 -262144 -1 -1 1 1
;
#X obj 46 85 metro 250;
#X obj 177 361 +~;
#X obj 141 583 outlet~;
#X obj 799 274 osc~;
#X obj 841 274 osc~;
#X obj 881 274 osc~;
#X obj 923 274 osc~;
#X obj 964 274 osc~;
#X obj 1006 274 osc~;
#X obj 1046 274 osc~;
#X obj 1088 274 osc~;
#X obj 798 221 * 9;
#X obj 841 221 * 10;
#X obj 886 221 * 11;
#X obj 927 221 * 12;
#X obj 969 221 * 13;
#X obj 1008 221 * 14;
#X obj 1053 221 * 15;
#X obj 1094 221 * 16;
#X obj 432 694 osc~;
#X obj 474 694 osc~;
#X obj 514 694 osc~;
#X obj 556 694 osc~;
#X obj 597 694 osc~;
#X obj 639 694 osc~;
#X obj 679 694 osc~;
#X obj 721 694 osc~;
#X obj 791 694 osc~;
#X obj 833 694 osc~;
#X obj 873 694 osc~;
#X obj 915 694 osc~;
#X obj 956 694 osc~;
#X obj 998 694 osc~;
#X obj 1038 694 osc~;
#X obj 1080 694 osc~;
#X obj 431 641 * 17;
#X obj 474 641 * 18;
#X obj 518 641 * 19;
#X obj 560 641 * 20;
#X obj 602 641 * 21;
#X obj 641 641 * 22;
#X obj 686 641 * 23;
#X obj 728 641 * 24;
#X obj 789 641 * 25;
#X obj 833 641 * 26;
#X obj 878 641 * 27;
#X obj 961 641 * 29;
#X obj 1000 641 * 30;
#X obj 1045 641 * 31;
#X obj 65 331 tgl 15 0 empty empty empty 17 7 0 10 -262144 -1 -1 1
1;
#X obj 102 394 *~;
#X obj 746 98 / 64;
#X obj 919 641 * 28;
#X obj 1086 641 * 0;
#X obj 391 755 pow~ 2;
#X obj 306 687 /~ 2;
#X connect 0 0 19 0;
#X connect 1 0 19 0;
#X connect 2 0 19 0;
#X connect 3 0 19 0;
#X connect 4 0 19 0;
#X connect 5 0 19 0;
#X connect 6 0 19 0;
#X connect 7 0 19 0;
#X connect 8 0 0 0;
#X connect 9 0 1 0;
#X connect 10 0 2 0;
#X connect 11 0 3 0;
#X connect 12 0 4 0;
#X connect 13 0 5 0;
#X connect 14 0 6 0;
#X connect 15 0 7 0;
#X connect 16 0 69 0;
#X connect 17 0 18 0;
#X connect 18 0 16 0;
#X connect 19 0 68 0;
#X connect 21 0 19 0;
#X connect 22 0 19 0;
#X connect 23 0 19 0;
#X connect 24 0 19 0;
#X connect 25 0 19 0;
#X connect 26 0 19 0;
#X connect 27 0 19 0;
#X connect 28 0 19 0;
#X connect 29 0 21 0;
#X connect 30 0 22 0;
#X connect 31 0 23 0;
#X connect 32 0 24 0;
#X connect 33 0 25 0;
#X connect 34 0 26 0;
#X connect 35 0 27 0;
#X connect 36 0 28 0;
#X connect 37 0 19 0;
#X connect 38 0 19 0;
#X connect 39 0 19 0;
#X connect 40 0 19 0;
#X connect 41 0 19 0;
#X connect 42 0 19 0;
#X connect 43 0 19 0;
#X connect 44 0 19 0;
#X connect 45 0 19 0;
#X connect 46 0 19 0;
#X connect 47 0 19 0;
#X connect 48 0 19 0;
#X connect 49 0 19 0;
#X connect 50 0 19 0;
#X connect 51 0 19 0;
#X connect 52 0 72 0;
#X connect 53 0 37 0;
#X connect 54 0 38 0;
#X connect 55 0 39 0;
#X connect 56 0 40 0;
#X connect 57 0 41 0;
#X connect 58 0 42 0;
#X connect 59 0 43 0;
#X connect 60 0 44 0;
#X connect 61 0 45 0;
#X connect 62 0 46 0;
#X connect 63 0 47 0;
#X connect 64 0 49 0;
#X connect 65 0 50 0;
#X connect 66 0 51 0;
#X connect 67 0 68 1;
#X connect 68 0 20 0;
#X connect 69 0 8 0;
#X connect 69 0 9 0;
#X connect 69 0 10 0;
#X connect 69 0 11 0;
#X connect 69 0 12 0;
#X connect 69 0 13 0;
#X connect 69 0 14 0;
#X connect 69 0 15 0;
#X connect 69 0 29 0;
#X connect 69 0 30 0;
#X connect 69 0 31 0;
#X connect 69 0 32 0;
#X connect 69 0 33 0;
#X connect 69 0 34 0;
#X connect 69 0 35 0;
#X connect 69 0 36 0;
#X connect 69 0 53 0;
#X connect 69 0 54 0;
#X connect 69 0 55 0;
#X connect 69 0 56 0;
#X connect 69 0 57 0;
#X connect 69 0 58 0;
#X connect 69 0 59 0;
#X connect 69 0 60 0;
#X connect 69 0 61 0;
#X connect 69 0 62 0;
#X connect 69 0 63 0;
#X connect 69 0 64 0;
#X connect 69 0 65 0;
#X connect 69 0 66 0;
#X connect 69 0 70 0;
#X connect 69 0 71 0;
#X connect 70 0 48 0;
#X connect 71 0 52 0;
#X connect 72 0 73 0;
#X connect 73 0 19 0;
#X restore 28 50 pd generator;
#X text 550 82 FFT Abs part;
#X text 400 214;
#X text 506 315;
#X text 576 303 frequency;
#X text 335 100 module;
#X text 159 65 cutoff freq.;
#X obj 94 140 testfilter~;
#X text 26 13 Patch for testing filter externals;
#X connect 1 0 22 1;
#X connect 2 0 4 0;
#X connect 2 0 7 0;
#X connect 2 0 13 0;
#X connect 3 0 2 0;
#X connect 3 0 6 0;
#X connect 8 0 3 0;
#X connect 9 0 12 0;
#X connect 10 0 12 1;
#X connect 11 0 7 0;
#X connect 12 0 11 0;
#X connect 14 0 9 0;
#X connect 14 0 9 1;
#X connect 14 1 10 1;
#X connect 14 1 10 0;
#X connect 15 0 22 0;
#X connect 22 0 14 0;
