#N canvas 1912 -70 1920 1158 10;
#X obj 130 477 testfilter~;
#N canvas 0 0 450 300 (subpatch) 0;
#X array \$0-filter-real 64 float 2;
#X coords 0 64 64 -64 256 200 1;
#X restore 377 103 graph;
#N canvas 0 0 450 300 (subpatch) 0;
#X array \$0-filter-imaginary 64 float 2;
#X coords 0 64 64 -64 256 200 1;
#X restore 377 336 graph;
#X text 549 84 real part;
#X text 504 317 imaginary part;
#X text 385 557 updated for PD version 0.39;
#X text 223 -9;
#X floatatom 117 244 7 0 0 0 - - -;
#X floatatom 116 143 5 0 32 0 - - -;
#X obj 116 190 t f b;
#X obj 116 215 *;
#X obj 116 359 osc~;
#X obj 147 335 f;
#X obj 116 166 / 64;
#X obj 147 261 r \$0-snap;
#X msg 116 54 0;
#X msg 116 75 10;
#X msg 116 96 10.5;
#X floatatom 204 434 5 0 0 0 - - -;
#X obj 120 699 metro 250;
#X obj 120 676 loadbang;
#X obj 129 721 s \$0-snap;
#X text 226 672 real and imaginary;
#X text 226 688 outputs are graphed;
#X text 225 705 separately.;
#X text 127 651 SR/64).;
#X msg 314 745 \; pd dsp 1;
#X obj 107 745 tabwrite~ \$0-filter-imaginary;
#X obj 78 768 tabwrite~ \$0-filter-real;
#X obj 80 555 fft~;
#X obj 207 572 bng 15 250 50 0 empty empty empty 17 7 0 10 -262144
-1 -1;
#X obj 207 236 samplerate~;
#X floatatom 188 288 3 0 100 0 - - -;
#X obj 188 309 / 100;
#X text 267 317 of a cycle;
#X text 224 287 <- phase in;
#X text 258 303 hundredths;
#X text 254 269 from below;
#X text 162 143 <- frequency;
#X text 201 159 (as multiple;
#X text 203 175 of SR/64 \, the;
#X text 201 192 fundamental);
#X msg 256 423 5000;
#X connect 0 0 29 0;
#X connect 7 0 11 0;
#X connect 8 0 13 0;
#X connect 9 0 10 0;
#X connect 9 1 31 0;
#X connect 10 0 7 0;
#X connect 11 0 0 0;
#X connect 12 0 11 1;
#X connect 13 0 9 0;
#X connect 14 0 12 0;
#X connect 15 0 8 0;
#X connect 16 0 8 0;
#X connect 17 0 8 0;
#X connect 18 0 0 1;
#X connect 19 0 21 0;
#X connect 19 0 27 0;
#X connect 19 0 28 0;
#X connect 20 0 19 0;
#X connect 20 0 26 0;
#X connect 29 0 28 0;
#X connect 29 1 27 0;
#X connect 30 0 20 0;
#X connect 31 0 10 1;
#X connect 32 0 33 0;
#X connect 33 0 12 1;
#X connect 42 0 0 1;
