#N canvas 0 0 792 810 10;
#X obj 130 477 testfilter~;
#N canvas 0 0 450 300 (subpatch) 0;
#X array \$0-filter-real 32 float 5;
#A 0 32.0052 21.6102 13.334 9.36917 7.18158 5.81843 4.89453 4.2302
3.73133 3.34426 3.03617 2.78598 2.57946 2.4067 2.26066 2.13614 2.02917
1.93683 1.85677 1.7872 1.72662 1.67391 1.62811 1.58848 1.55437 1.52526
1.50078 1.48058 1.46437 1.45196 1.44323 1.43801;
#X coords 0 34 31 0 256 200 1 0 0;
#X restore 377 103 graph;
#N canvas 0 0 450 300 (subpatch) 0;
#X array \$0-filter-imaginary 64 float 2;
#X coords 0 64 64 -64 256 200 1;
#X restore 377 336 graph;
#X text 549 84 real part;
#X text 504 317 imaginary part;
#X text 385 557 updated for PD version 0.39;
#X floatatom 117 244 7 0 0 0 - - -;
#X floatatom 116 143 5 0 32 0 - - -;
#X obj 116 190 t f b;
#X obj 116 215 *;
#X obj 147 335 f;
#X obj 116 166 / 64;
#X obj 147 261 r \$0-snap;
#X msg 116 54 0;
#X msg 117 75 10;
#X msg 116 96 10.5;
#X floatatom 201 427 5 0 0 0 - - -;
#X obj 205 693 metro 250;
#X obj 205 670 loadbang;
#X obj 214 715 s \$0-snap;
#X text 311 666 real and imaginary;
#X text 311 682 outputs are graphed;
#X text 310 699 separately.;
#X text 212 645 SR/64).;
#X msg 399 739 \; pd dsp 1;
#X obj 166 849 tabwrite~ \$0-filter-real;
#X obj 206 572 bng 15 250 50 0 empty empty empty 17 7 0 10 -262144
-1 -1;
#X obj 207 236 samplerate~;
#X floatatom 188 288 3 0 100 0 - - -;
#X obj 188 309 / 100;
#X text 267 317 of a cycle;
#X text 224 287 <- phase in;
#X text 258 303 hundredths;
#X text 254 269 from below;
#X text 162 143 <- frequency;
#X text 201 159 (as multiple;
#X text 203 175 of SR/64 \, the;
#X text 201 192 fundamental);
#X msg 263 424 5000;
#X obj 48 613 *~;
#X obj 93 613 *~;
#X obj 45 706 sqrt~;
#X obj 48 662 +~;
#X obj 225 799 tabwrite~ \$0-filter-imaginary;
#X obj 92 548 rfft~;
#X obj 128 421 osc~;
#X obj 47 858 output~;
#X text 808 128 comment;
#X floatatom 49 306 5 0 0 0 - - -;
#X obj 36 50 tgl 15 0 empty empty empty 17 7 0 10 -262144 -1 -1 0 1
;
#X floatatom 36 154 5 0 0 0 - - -;
#X obj 36 127 count 64;
#X obj 36 75 metro 2;
#N canvas 800 0 792 810 generator 1;
#X obj 440 274 osc~;
#X obj 482 274 osc~;
#X obj 522 274 osc~;
#X obj 564 274 osc~;
#X obj 605 274 osc~;
#X obj 647 274 osc~;
#X obj 687 274 osc~;
#X obj 729 274 osc~;
#X obj 439 221 * 1;
#X obj 482 221 * 2;
#X obj 526 221 * 3;
#X obj 568 221 * 4;
#X obj 610 221 * 5;
#X obj 649 221 * 6;
#X obj 694 221 * 7;
#X obj 736 221 * 8;
#X obj 373 41 samplerate~;
#X obj 45 60 tgl 15 0 empty empty empty 17 7 0 10 -262144 -1 -1 1 1
;
#X floatatom 46 164 5 0 0 0 - - -;
#X obj 46 137 count 64;
#X obj 46 85 metro 250;
#X obj 177 361 +~;
#X obj 141 583 outlet~;
#X obj 799 274 osc~;
#X obj 841 274 osc~;
#X obj 881 274 osc~;
#X obj 923 274 osc~;
#X obj 964 274 osc~;
#X obj 1006 274 osc~;
#X obj 1046 274 osc~;
#X obj 1088 274 osc~;
#X obj 798 221 * 9;
#X obj 841 221 * 10;
#X obj 886 221 * 11;
#X obj 927 221 * 12;
#X obj 969 221 * 13;
#X obj 1008 221 * 14;
#X obj 1053 221 * 15;
#X obj 1094 221 * 16;
#X obj 432 694 osc~;
#X obj 474 694 osc~;
#X obj 514 694 osc~;
#X obj 556 694 osc~;
#X obj 597 694 osc~;
#X obj 639 694 osc~;
#X obj 679 694 osc~;
#X obj 721 694 osc~;
#X obj 791 694 osc~;
#X obj 833 694 osc~;
#X obj 873 694 osc~;
#X obj 915 694 osc~;
#X obj 956 694 osc~;
#X obj 998 694 osc~;
#X obj 1038 694 osc~;
#X obj 1080 694 osc~;
#X obj 431 641 * 17;
#X obj 474 641 * 18;
#X obj 518 641 * 19;
#X obj 560 641 * 20;
#X obj 602 641 * 21;
#X obj 641 641 * 22;
#X obj 686 641 * 23;
#X obj 728 641 * 24;
#X obj 789 641 * 25;
#X obj 833 641 * 26;
#X obj 878 641 * 27;
#X obj 961 641 * 29;
#X obj 1000 641 * 30;
#X obj 1045 641 * 31;
#X obj 65 331 tgl 15 0 empty empty empty 17 7 0 10 -262144 -1 -1 1
1;
#X obj 102 394 *~;
#X obj 746 98 / 64;
#X obj 919 641 * 28;
#X obj 1086 641 * 0;
#X obj 391 755 pow~ 2;
#X obj 306 687 /~ 2;
#X connect 0 0 21 0;
#X connect 1 0 21 0;
#X connect 2 0 21 0;
#X connect 3 0 21 0;
#X connect 4 0 21 0;
#X connect 5 0 21 0;
#X connect 6 0 21 0;
#X connect 7 0 21 0;
#X connect 8 0 0 0;
#X connect 9 0 1 0;
#X connect 10 0 2 0;
#X connect 11 0 3 0;
#X connect 12 0 4 0;
#X connect 13 0 5 0;
#X connect 14 0 6 0;
#X connect 15 0 7 0;
#X connect 16 0 71 0;
#X connect 17 0 20 0;
#X connect 19 0 18 0;
#X connect 20 0 19 0;
#X connect 20 0 16 0;
#X connect 21 0 70 0;
#X connect 23 0 21 0;
#X connect 24 0 21 0;
#X connect 25 0 21 0;
#X connect 26 0 21 0;
#X connect 27 0 21 0;
#X connect 28 0 21 0;
#X connect 29 0 21 0;
#X connect 30 0 21 0;
#X connect 31 0 23 0;
#X connect 32 0 24 0;
#X connect 33 0 25 0;
#X connect 34 0 26 0;
#X connect 35 0 27 0;
#X connect 36 0 28 0;
#X connect 37 0 29 0;
#X connect 38 0 30 0;
#X connect 39 0 21 0;
#X connect 40 0 21 0;
#X connect 41 0 21 0;
#X connect 42 0 21 0;
#X connect 43 0 21 0;
#X connect 44 0 21 0;
#X connect 45 0 21 0;
#X connect 46 0 21 0;
#X connect 47 0 21 0;
#X connect 48 0 21 0;
#X connect 49 0 21 0;
#X connect 50 0 21 0;
#X connect 51 0 21 0;
#X connect 52 0 21 0;
#X connect 53 0 21 0;
#X connect 54 0 74 0;
#X connect 55 0 39 0;
#X connect 56 0 40 0;
#X connect 57 0 41 0;
#X connect 58 0 42 0;
#X connect 59 0 43 0;
#X connect 60 0 44 0;
#X connect 61 0 45 0;
#X connect 62 0 46 0;
#X connect 63 0 47 0;
#X connect 64 0 48 0;
#X connect 65 0 49 0;
#X connect 66 0 51 0;
#X connect 67 0 52 0;
#X connect 68 0 53 0;
#X connect 69 0 70 1;
#X connect 70 0 22 0;
#X connect 71 0 8 0;
#X connect 71 0 9 0;
#X connect 71 0 10 0;
#X connect 71 0 11 0;
#X connect 71 0 12 0;
#X connect 71 0 13 0;
#X connect 71 0 14 0;
#X connect 71 0 15 0;
#X connect 71 0 31 0;
#X connect 71 0 32 0;
#X connect 71 0 33 0;
#X connect 71 0 34 0;
#X connect 71 0 35 0;
#X connect 71 0 36 0;
#X connect 71 0 37 0;
#X connect 71 0 38 0;
#X connect 71 0 55 0;
#X connect 71 0 56 0;
#X connect 71 0 57 0;
#X connect 71 0 58 0;
#X connect 71 0 59 0;
#X connect 71 0 60 0;
#X connect 71 0 61 0;
#X connect 71 0 62 0;
#X connect 71 0 63 0;
#X connect 71 0 64 0;
#X connect 71 0 65 0;
#X connect 71 0 66 0;
#X connect 71 0 67 0;
#X connect 71 0 68 0;
#X connect 71 0 72 0;
#X connect 71 0 73 0;
#X connect 72 0 50 0;
#X connect 73 0 54 0;
#X connect 74 0 75 0;
#X connect 75 0 21 0;
#X restore 40 411 pd generator;
#X connect 0 0 44 0;
#X connect 6 0 45 0;
#X connect 7 0 11 0;
#X connect 8 0 9 0;
#X connect 8 0 48 0;
#X connect 8 1 27 0;
#X connect 9 0 6 0;
#X connect 10 0 45 1;
#X connect 11 0 8 0;
#X connect 12 0 10 0;
#X connect 13 0 7 0;
#X connect 14 0 7 0;
#X connect 15 0 7 0;
#X connect 16 0 0 1;
#X connect 17 0 19 0;
#X connect 17 0 25 0;
#X connect 17 0 43 0;
#X connect 18 0 17 0;
#X connect 18 0 24 0;
#X connect 26 0 18 0;
#X connect 27 0 9 1;
#X connect 28 0 29 0;
#X connect 29 0 10 1;
#X connect 38 0 0 1;
#X connect 39 0 42 0;
#X connect 40 0 42 1;
#X connect 41 0 25 0;
#X connect 42 0 41 0;
#X connect 44 0 39 0;
#X connect 44 0 39 1;
#X connect 44 1 40 1;
#X connect 44 1 40 0;
#X connect 49 0 52 0;
#X connect 51 0 50 0;
#X connect 51 0 11 0;
#X connect 52 0 51 0;
#X connect 53 0 0 0;
