#N canvas 593 270 469 402 10;
#X msg 140 25 1;
#X obj 140 240 vline~;
#X obj 140 270 env~;
#X msg 181 25 0;
#X obj 226 272 env~;
#X floatatom 226 308 5 0 0 0 - - -;
#X floatatom 140 308 5 0 0 0 - - -;
#X obj 140 65 t f f;
#X floatatom 232 85 5 0 0 1 Period_(ms) - -;
#X obj 232 104 t f f;
#X obj 259 168 / 1000;
#X obj 232 41 loadbang;
#X msg 259 190 1 \$1;
#X obj 259 212 /;
#X msg 232 63 1000;
#X obj 140 210 pack f 1000;
#X obj 226 240 lop~ 1;
#X text 107 25 bang;
#X connect 0 0 7 0;
#X connect 1 0 2 0;
#X connect 2 0 6 0;
#X connect 3 0 7 0;
#X connect 4 0 5 0;
#X connect 7 0 15 0;
#X connect 7 1 16 0;
#X connect 8 0 9 0;
#X connect 9 0 15 1;
#X connect 9 1 10 0;
#X connect 10 0 12 0;
#X connect 11 0 14 0;
#X connect 12 0 13 0;
#X connect 13 0 16 1;
#X connect 14 0 8 0;
#X connect 15 0 1 0;
#X connect 16 0 4 0;
