#N canvas 300 22 869 691 10;
#X obj 128 59 tgl 15 0 empty empty empty 17 7 0 10 -262144 -1 -1 1
1;
#X obj 207 233 lop~ 10;
#X obj 201 346 lp4_bess~ 10;
#X floatatom 392 80 5 0 0 0 - - -;
#X obj 202 461 maverage~ 1000 100;
#X obj 165 129 sig~;
#N canvas 0 0 450 300 (subpatch) 0;
#X array \$0-lop 4410 float 0;
#X coords 0 1 4409 -1 200 140 1;
#X restore 588 86 graph;
#N canvas 0 22 450 300 (subpatch) 0;
#X array \$0-bessel 4410 float 0;
#X coords 0 1 4409 -1 200 140 1;
#X restore 588 266 graph;
#N canvas 0 22 450 300 (subpatch) 0;
#X array \$0-average 4410 float 0;
#X coords 0 1 4409 -1 200 140 1;
#X restore 588 446 graph;
#X obj 75 313 tabwrite~ \$0-lop;
#X obj 71 393 tabwrite~ \$0-bessel;
#X obj 80 501 tabwrite~ \$0-average;
#X text 148 59 make step;
#X text 427 80 ramp length in ms;
#X obj 353 157 expr 1/($f1/1000);
#X obj 125 93 t b f;
#X text 602 32 tables are 100 ms long;
#X text 708 614 .mmb;
#X connect 0 0 15 0;
#X connect 1 0 9 0;
#X connect 2 0 10 0;
#X connect 3 0 14 0;
#X connect 3 0 4 1;
#X connect 4 0 11 0;
#X connect 5 0 1 0;
#X connect 5 0 2 0;
#X connect 5 0 4 0;
#X connect 14 0 1 1;
#X connect 14 0 2 1;
#X connect 15 0 9 0;
#X connect 15 0 10 0;
#X connect 15 0 11 0;
#X connect 15 1 5 0;
